<?xml version="1.0" encoding="utf-8"?>
<!-- Generator: Adobe Illustrator 19.1.0, SVG Export Plug-In . SVG Version: 6.00 Build 0)  -->
<svg version="1.1" id="Layer_1" xmlns="http://www.w3.org/2000/svg" xmlns:xlink="http://www.w3.org/1999/xlink" x="0px" y="0px"
	 viewBox="-233 369.7 144 54.3" style="enable-background:new -233 369.7 144 54.3;" xml:space="preserve">
<style type="text/css">
	.st0{enable-background:new    ;}
	.st1{fill:#FEC40E;}
</style>
<g id="ACT_x21_ON_1_" class="st0">
	<g id="ACT_x21_ON">
		<g>
			<path class="st1" d="M-222,382c-2.8,9.7-5.5,19.7-8.3,30.2c2.2-0.2,4.5-0.3,6.8-0.5c0.5-2.3,1.1-4.5,1.6-6.8
				c2.8-0.1,5.6-0.2,8.3-0.2c0.5,2.1,1.1,4.2,1.6,6.3c2.4-0.1,4.8-0.2,7.1-0.3c-2.8-9-5.7-18.3-8.5-28
				C-216.1,382.5-219.1,382.2-222,382z M-220.5,399.2c0.9-3.7,1.8-7.4,2.7-11c0.9,3.7,1.8,7.4,2.7,11
				C-216.9,399.2-218.6,399.2-220.5,399.2z M-188.1,384.2c-2.6-0.1-5.2-0.2-7.8-0.4c-5-0.3-6.8,1.2-6.8,5.6v15.3
				c0,4.5,1.8,5.9,6.8,5.7c2.6-0.1,5.2-0.2,7.8-0.3c5.1-0.1,6.8-1.6,6.8-5.8v-3.4c-2.2-0.4-4.5-0.8-6.7-1.2v5c-2.7,0-5.4,0.1-8,0.1
				v-15.5c2.7,0.1,5.4,0.2,8,0.2v4.4c2.2-0.4,4.5-0.7,6.7-1.1V390C-181.2,385.9-183.1,384.4-188.1,384.2z M-178.6,389.8
				c2.4,0,4.8,0.1,7.3,0.1v20c2.2,0,4.5,0,6.8-0.1v-19.9c2.4,0,4.8,0,7.3,0v-5.2c-7.1,0-14.2-0.1-21.3-0.3L-178.6,389.8
				L-178.6,389.8z M-147.9,402.8c-1.1,0-2.3,0-3.4,0c-1.4,0-1.9,0.3-1.9,1.5v3.9c0,1.2,0.5,1.5,1.9,1.5c1.1,0,2.3,0,3.4,0
				c1.4,0,1.9-0.3,1.9-1.5v-4C-146,403.2-146.4,402.8-147.9,402.8z M-151.6,400.9c1.4,0,2.8,0,4.1,0c0.7-5.4,1.4-10.8,2.1-16.3
				c-2.8,0.1-5.5,0.1-8.3,0.1C-153,390-152.4,395.5-151.6,400.9z M-126.5,384c-2.8,0.1-5.6,0.2-8.5,0.3c-5,0.2-6.8,1.7-6.8,5.8v14.2
				c0,4.1,1.8,5.6,6.8,5.7c2.8,0.1,5.6,0.1,8.5,0.2c5,0.2,6.8-1.3,6.8-5.7v-15C-119.6,385.2-121.5,383.8-126.5,384z M-126.4,404.9
				c-2.9,0-5.8-0.1-8.7-0.1v-15.1c2.9-0.1,5.8-0.1,8.7-0.2V404.9z M-98.5,382.2v17.2c-3.1-5.7-6.2-11.2-9.3-16.5
				c-2.2,0.2-4.5,0.3-6.7,0.5v27.4c2.2,0.1,4.5,0.2,6.7,0.3v-16.5c3.1,5.4,6.2,11.1,9.3,17c2.2,0.1,4.4,0.3,6.7,0.4v-30.4
				C-94.1,381.8-96.2,382-98.5,382.2z"/>
		</g>
	</g>
</g>
</svg>
