<?xml version="1.0" encoding="utf-8"?>
<!-- Generator: Adobe Illustrator 19.1.0, SVG Export Plug-In . SVG Version: 6.00 Build 0)  -->
<svg version="1.1" id="Layer_1" xmlns="http://www.w3.org/2000/svg" xmlns:xlink="http://www.w3.org/1999/xlink" x="0px" y="0px"
	 viewBox="-233 347 144 54.3" style="enable-background:new -233 347 144 54.3;" xml:space="preserve">
<style type="text/css">
	.st0{enable-background:new    ;}
	.st1{fill:#FFFFFF;}
	.st2{fill:#FEC40E;}
</style>
<g id="ADVERTISING__x2022__MARKETING_DIGITAL__x2022__SOCIAL_MEDIA_1_" class="st0">
	<g id="ADVERTISING__x2022__MARKETING_DIGITAL__x2022__SOCIAL_MEDIA">
		<g>
			<path class="st1" d="M-228.4,388.8h0.3l0.7-1.6h2.2l0.7,1.6h0.3l-2.1-5.1L-228.4,388.8z M-227.3,386.8l1-2.4l1,2.4H-227.3z
				 M-220.5,383.8h-0.9v5h0.9c0.7,0,1.3-0.1,1.9-0.7c0.5-0.5,0.8-1.1,0.8-1.8c0-0.7-0.3-1.4-0.8-1.9
				C-219.2,383.9-219.8,383.8-220.5,383.8z M-218.8,387.9c-0.5,0.5-1,0.6-1.7,0.6h-0.6v-4.4h0.6c0.6,0,1.1,0.1,1.6,0.5
				s0.7,1,0.7,1.7C-218.2,386.9-218.4,387.4-218.8,387.9z M-212.1,383.8l-1.4,4.2l0,0l-1.5-4.2h-0.3l1.8,5.1l1.8-5.1H-212.1z
				 M-208.9,388.8h2.4v-0.3h-2.1v-2.3h2v-0.3h-2v-1.8h2.1v-0.3h-2.4V388.8z M-201.1,385.1c0-0.4-0.1-0.8-0.5-1.1
				c-0.3-0.2-0.7-0.3-1.1-0.3h-0.6v5h0.3v-2.4h0.2l1.6,2.4h0.4l-1.6-2.4C-201.7,386.4-201.1,386-201.1,385.1z M-203,386.1v-2h0.2
				c0.3,0,0.6,0,0.9,0.1c0.4,0.2,0.5,0.5,0.5,0.9c0,0.3-0.1,0.6-0.4,0.8c-0.3,0.2-0.6,0.2-0.9,0.2H-203z M-195.5,383.8h-2.9v0.3h1.3
				v4.7h0.3v-4.7h1.3C-195.5,384.1-195.5,383.8-195.5,383.8z M-192.3,383.8h-0.3v5h0.3V383.8z M-186.8,386.4l-1-0.5
				c-0.4-0.2-0.9-0.4-0.9-0.9s0.4-1,0.9-1s0.8,0.2,1,0.6l0.2-0.2c-0.2-0.4-0.7-0.7-1.2-0.7c-0.7,0-1.3,0.5-1.3,1.3
				c0,0.4,0.2,0.7,0.5,0.9l0.9,0.5c0.4,0.2,1,0.4,1,1c0,0.7-0.6,1.2-1.2,1.2s-1-0.4-1.2-0.9l-0.3,0.1c0.2,0.6,0.8,1.1,1.5,1.1
				c0.8,0,1.6-0.6,1.6-1.4C-186.2,386.9-186.4,386.6-186.8,386.4z M-183.2,388.8h0.3v-5h-0.3V388.8z M-175.4,388.1l-4.2-4.4v5h0.3
				v-4.3l4.2,4.4v-5.1h-0.3V388.1z M-167.6,388c0.4-0.5,0.5-1,0.5-1.7h-2.1v0.3h1.8c0,0.5-0.2,1-0.6,1.3c-0.4,0.3-0.9,0.5-1.5,0.5
				c-1.2,0-2.3-1-2.3-2.3c0-1.2,1-2.3,2.3-2.3c0.8,0,1.5,0.4,1.9,1.1l0.3-0.2c-0.5-0.7-1.3-1.2-2.2-1.2c-1.4,0-2.6,1.1-2.6,2.6
				c0,1.4,1.2,2.5,2.6,2.5C-168.8,388.8-168.1,388.5-167.6,388z M-158.2,385c-0.7,0-1.2,0.6-1.2,1.2c0,0.7,0.5,1.2,1.2,1.2
				s1.2-0.6,1.2-1.2C-157,385.6-157.5,385-158.2,385z M-144.9,384.6l0.9,4.1h0.3l-1.1-5.1l-1.8,4.5l-1.8-4.5l-1.1,5.1h0.3l0.9-4.1
				l0,0l1.7,4.3L-144.9,384.6L-144.9,384.6z M-137.6,388.8h0.3l-2.1-5.1l-2.1,5.1h0.3l0.7-1.6h2.2L-137.6,388.8z M-140.3,386.8
				l1-2.4l1,2.4H-140.3z M-132.2,385.1c0-0.4-0.1-0.8-0.5-1.1c-0.3-0.2-0.7-0.3-1.1-0.3h-0.6v5h0.3v-2.4h0.1l1.6,2.4h0.4l-1.6-2.4
				C-132.8,386.4-132.2,386-132.2,385.1z M-134.2,386.1v-2h0.2c0.3,0,0.6,0,0.9,0.1c0.4,0.2,0.5,0.5,0.5,0.9c0,0.3-0.1,0.6-0.3,0.8
				c-0.3,0.2-0.6,0.2-0.9,0.2H-134.2z M-128.7,386.5l0.1-0.1l2.4,2.4h0.4l-2.6-2.6l2.4-2.4h-0.4l-2.4,2.3v-2.3h-0.2v5h0.3V386.5z
				 M-120.6,388.5h-2.1v-2.3h2v-0.3h-2v-1.8h2.1v-0.3h-2.4v5h2.4V388.5z M-115,383.8h-2.9v0.3h1.3v4.7h0.3v-4.7h1.3
				C-115,384.1-115,383.8-115,383.8z M-112.2,388.8h0.3v-5h-0.3V388.8z M-104.1,383.8h-0.3v4.3l-4.2-4.4v5h0.3v-4.3l4.2,4.4V383.8z
				 M-98.2,386.4v0.3h1.8c0,0.5-0.2,1-0.6,1.3c-0.4,0.3-0.9,0.5-1.5,0.5c-1.2,0-2.3-1-2.3-2.3c0-1.2,1-2.3,2.3-2.3
				c0.8,0,1.5,0.4,1.9,1.1l0.3-0.2c-0.5-0.7-1.3-1.2-2.2-1.2c-1.4,0-2.6,1.1-2.6,2.6c0,1.4,1.2,2.5,2.6,2.5c0.7,0,1.4-0.3,1.9-0.8
				c0.4-0.5,0.5-1,0.5-1.7h-2.1V386.4z M-220.9,391.3h-0.9v5h0.9c0.7,0,1.3-0.1,1.9-0.7c0.5-0.5,0.8-1.1,0.8-1.8
				c0-0.7-0.3-1.4-0.8-1.9C-219.6,391.4-220.2,391.3-220.9,391.3z M-219.2,395.4c-0.5,0.5-1,0.6-1.7,0.6h-0.6v-4.4h0.6
				c0.6,0,1.1,0.1,1.6,0.5s0.7,1,0.7,1.7C-218.6,394.4-218.8,395-219.2,395.4z M-215.2,396.3h0.3v-5h-0.3V396.3z M-209,394.2h1.8
				c0,0.5-0.2,1-0.6,1.3c-0.4,0.3-0.9,0.5-1.5,0.5c-1.2,0-2.3-1-2.3-2.3c0-1.2,1-2.3,2.3-2.3c0.8,0,1.5,0.4,1.9,1.1l0.3-0.2
				c-0.5-0.7-1.3-1.2-2.2-1.2c-1.4,0-2.6,1.1-2.6,2.6c0,1.4,1.2,2.5,2.6,2.5c0.7,0,1.4-0.3,1.9-0.8c0.4-0.5,0.5-1,0.5-1.7h-2.1
				V394.2z M-203.9,396.3h0.3v-5h-0.3V396.3z M-200.8,391.6h1.3v4.7h0.3v-4.7h1.3v-0.3h-2.9C-200.8,391.3-200.8,391.6-200.8,391.6z
				 M-195.6,396.3h0.3l0.7-1.6h2.2l0.7,1.6h0.3l-2.1-5.1L-195.6,396.3z M-194.4,394.4l1-2.4l1,2.4H-194.4z M-188.3,391.3h-0.3v5h1.6
				V396h-1.3V391.3z M-178.4,392.5c-0.7,0-1.2,0.6-1.2,1.2c0,0.7,0.5,1.2,1.2,1.2c0.7,0,1.2-0.6,1.2-1.2
				C-177.1,393.1-177.6,392.5-178.4,392.5z M-167,393.9l-1-0.5c-0.4-0.2-0.9-0.4-0.9-0.9s0.4-1,0.9-1s0.8,0.2,1,0.6l0.2-0.2
				c-0.2-0.4-0.7-0.7-1.2-0.7c-0.7,0-1.3,0.5-1.3,1.3c0,0.4,0.2,0.7,0.5,0.9l0.9,0.5c0.4,0.2,1,0.4,1,1c0,0.7-0.6,1.2-1.2,1.2
				c-0.6,0-1-0.4-1.2-0.9l-0.3,0.1c0.2,0.6,0.8,1.1,1.5,1.1c0.8,0,1.6-0.6,1.6-1.4C-166.5,394.5-166.7,394.2-167,393.9z
				 M-161.1,391.2c-1.4,0-2.6,1.2-2.6,2.6c0,1.4,1.2,2.6,2.6,2.6c1.4,0,2.6-1.2,2.6-2.6C-158.5,392.4-159.7,391.2-161.1,391.2z
				 M-161.1,396.1c-1.2,0-2.3-1-2.3-2.3c0-1.2,1-2.3,2.3-2.3c1.2,0,2.3,1,2.3,2.3C-158.9,395-159.9,396.1-161.1,396.1z
				 M-155.8,393.8c0,1.4,1.2,2.6,2.6,2.6c0.6,0,1.2-0.2,1.7-0.6v-0.4c-0.4,0.4-1.1,0.8-1.7,0.8c-0.6,0-1.2-0.3-1.6-0.7
				s-0.7-1-0.7-1.5c0-1.2,1-2.3,2.3-2.3c0.6,0,1.3,0.3,1.7,0.8v-0.4c-0.4-0.4-1-0.6-1.7-0.6C-154.6,391.2-155.8,392.4-155.8,393.8z
				 M-148.4,396.3h0.3v-5h-0.3V396.3z M-145.3,396.3h0.3l0.7-1.6h2.2l0.7,1.6h0.3l-2.1-5.1L-145.3,396.3z M-144.2,394.4l1-2.4l1,2.4
				H-144.2z M-138,391.3h-0.3v5h1.6V396h-1.3V391.3z M-127.2,395.7l-1.8-4.5l-1.1,5.1h0.3l0.9-4.1l0,0l1.7,4.3l1.7-4.3l0,0l0.9,4.1
				h0.3l-1.1-5.1L-127.2,395.7z M-121.4,396.3h2.4V396h-2.1v-2.3h2v-0.3h-2v-1.8h2.1v-0.3h-2.4V396.3z M-114.9,391.3h-0.9v5h0.9
				c0.7,0,1.3-0.1,1.9-0.7c0.5-0.5,0.8-1.1,0.8-1.8c0-0.7-0.3-1.4-0.8-1.9C-113.6,391.4-114.2,391.3-114.9,391.3z M-113.3,395.4
				c-0.5,0.5-1,0.6-1.7,0.6h-0.6v-4.4h0.6c0.6,0,1.1,0.1,1.6,0.5s0.7,1,0.7,1.7C-112.6,394.4-112.8,395-113.3,395.4z M-109.3,396.3
				h0.3v-5h-0.3V396.3z M-106.1,396.3h0.3l0.7-1.6h2.2l0.7,1.6h0.3l-2.1-5.1L-106.1,396.3z M-105,394.4l1-2.4l1,2.4H-105z"/>
		</g>
	</g>
</g>
<g id="ACT_x21_ON_1_" class="st0">
	<g id="ACT_x21_ON">
		<g>
			<path class="st2" d="M-223.1,350.3c-2.8,9.7-5.5,19.7-8.3,30.2c2.2-0.2,4.5-0.3,6.8-0.5c0.5-2.3,1.1-4.5,1.6-6.8
				c2.8-0.1,5.6-0.2,8.3-0.2c0.5,2.1,1.1,4.2,1.6,6.3c2.4-0.1,4.8-0.2,7.1-0.3c-2.8-9-5.7-18.3-8.5-28
				C-217.3,350.8-220.2,350.6-223.1,350.3z M-221.6,367.5c0.9-3.7,1.8-7.4,2.7-11c0.9,3.7,1.8,7.4,2.7,11
				C-218,367.5-219.8,367.5-221.6,367.5z M-189.3,352.5c-2.6-0.1-5.2-0.2-7.8-0.4c-5-0.3-6.8,1.2-6.8,5.6V373c0,4.5,1.8,5.9,6.8,5.7
				c2.6-0.1,5.2-0.2,7.8-0.3c5.1-0.1,6.8-1.6,6.8-5.8v-3.4c-2.2-0.4-4.5-0.8-6.7-1.2v5c-2.7,0-5.4,0.1-8,0.1v-15.5
				c2.7,0.1,5.4,0.2,8,0.2v4.4c2.2-0.4,4.5-0.7,6.7-1.1v-2.8C-182.4,354.2-184.2,352.7-189.3,352.5z M-179.8,358.1
				c2.4,0,4.8,0.1,7.3,0.1v20c2.2,0,4.5,0,6.8-0.1v-19.9c2.4,0,4.8,0,7.3,0V353c-7.1,0-14.2-0.1-21.3-0.3v5.4H-179.8z M-149,371.1
				c-1.1,0-2.3,0-3.4,0c-1.4,0-1.9,0.3-1.9,1.5v3.9c0,1.2,0.5,1.5,1.9,1.5c1.1,0,2.3,0,3.4,0c1.4,0,1.9-0.3,1.9-1.5v-4
				C-147.1,371.5-147.5,371.1-149,371.1z M-152.8,369.2c1.4,0,2.8,0,4.1,0c0.7-5.4,1.4-10.8,2.1-16.3c-2.8,0.1-5.5,0.1-8.3,0.1
				C-154.1,358.4-153.5,363.8-152.8,369.2z M-127.6,352.3c-2.8,0.1-5.6,0.2-8.5,0.3c-5,0.2-6.8,1.7-6.8,5.8v14.2
				c0,4.1,1.8,5.6,6.8,5.7c2.8,0.1,5.6,0.1,8.5,0.2c5,0.2,6.8-1.3,6.8-5.7v-15C-120.8,353.5-122.6,352.1-127.6,352.3z M-127.5,373.2
				c-2.9,0-5.8-0.1-8.7-0.1V358c2.9-0.1,5.8-0.1,8.7-0.2V373.2z M-99.6,350.5v17.2c-3.1-5.7-6.2-11.2-9.3-16.5
				c-2.2,0.2-4.5,0.3-6.7,0.5v27.4c2.2,0.1,4.5,0.2,6.7,0.3v-16.5c3.1,5.4,6.2,11.1,9.3,17c2.2,0.1,4.4,0.3,6.7,0.4v-30.4
				C-95.2,350.1-97.4,350.3-99.6,350.5z"/>
		</g>
	</g>
</g>
</svg>
